# xmcd CD database file
#
# Track frame offsets:
#	150
#	17896
#	52156
#	77515
#	103264
#	123124
#	174472
#	204527
#	230754
#	247463
#	268572
#	282369
#
# Disc length: 3992 seconds
#
# Revision: 0
# Processed by: cddbd v1.5.2PL0 Copyright (c) Steve Scherf et al.
# Submitted via: CDex 1.70beta2
#
DISCID=b10f960c
DTITLE=Miles Davis - Feel The Groove (Disk 1)
DYEAR=1900
DGENRE=Jazz
TTITLE0=52nd St Theme
TTITLE1=Half Nelson
TTITLE2=You Got To My Head
TTITLE3=Chasin' The Bird
TTITLE4=Hot House
TTITLE5=Wee
TTITLE6=Tempus Fugit
TTITLE7=Evance (Out Of The Blue)
TTITLE8=Move
TTITLE9=Tenderly
TTITLE10=Night In Tunisia
TTITLE11=Dig
EXTD=
EXTT0=
EXTT1=
EXTT2=
EXTT3=
EXTT4=
EXTT5=
EXTT6=
EXTT7=
EXTT8=
EXTT9=
EXTT10=
EXTT11=
PLAYORDER=
